<?xml version="1.0" encoding="UTF-8"?>
<svg width="315px" height="64px" viewBox="0 0 315 64" version="1.1" xmlns="http://www.w3.org/2000/svg" xmlns:xlink="http://www.w3.org/1999/xlink">
    <title>main</title>
    <g id="main" stroke="none" stroke-width="1" fill="none" fill-rule="evenodd">
        <g id="Zendor_color-Copy" transform="translate(0.000000, -0.000000)">
            <g id="Symbol" transform="translate(0.000000, -0.000000)">
                <rect id="Rectangle" x="0" y="0" width="64" height="64"></rect>
                <path d="M27.2553318,0.470356978 C28.3492808,-0.156785659 29.6863064,-0.156785659 30.7802554,0.470356978 L30.7802554,0.470356978 L50.0576018,11.5212334 C50.2198136,11.6057656 50.375599,11.7024668 50.5235871,11.81011 C50.9219564,12.0943636 51.2412605,12.4420071 51.482026,12.8281635 C52.0056384,13.6490203 52.2147165,14.6876388 51.9072818,15.7633811 C51.7735876,16.2561543 51.5383991,16.7244679 51.2008259,17.1311282 L39.526,36.495 L56.1752732,46.0399772 C58.5489016,47.4007387 58.6067949,50.8232099 56.3489533,52.2845426 L56.1752732,52.3904025 L36.7446682,63.529643 C35.6507192,64.1567857 34.3136936,64.1567857 33.2197446,63.529643 L33.2197446,63.529643 L13.9423982,52.4787666 C13.7801864,52.3942344 13.624401,52.2975332 13.4764129,52.18989 C13.0780436,51.9056364 12.7587395,51.5579929 12.517974,51.1718365 C11.9987404,50.3578413 11.7888004,49.3297073 12.0851178,48.2635838 L12.0957584,48.2284753 C12.2289431,47.7388142 12.463415,47.2733468 12.7991741,46.8688718 L24.473,27.504 L7.82472685,17.9600228 C5.45109843,16.5992613 5.39320505,13.1767901 7.65104672,11.7154574 L7.82472685,11.6095975 Z M34.9822064,42.2612658 L22.8515302,49.2151899 L34.9822064,56.1681013 L47.1118861,49.2151899 L34.9822064,42.2612658 Z M29.0177936,7.83088608 L16.8871174,14.7848101 L29.0167972,21.7377215 L41.1474733,14.7848101 L29.0177936,7.83088608 Z" id="Combined-Shape" fill="#00B364" fill-rule="nonzero"></path>
            </g>
            <g id="zendoor" transform="translate(80.000000, 8.000000)">
                <path d="M133.660458,0 L133.660458,40.3269494 L124.934933,40.3269494 L124.934933,36.8354993 L124.545456,37.2493398 C123.870675,37.9355034 123.126078,38.5453906 122.311664,39.0790014 C120.357072,40.3596671 118.173352,41 115.760506,41 C113.272843,41 110.981574,40.4064067 108.8867,39.2192202 C106.791826,38.0320337 105.108445,36.2699498 103.836557,33.9329685 C102.564669,31.5959872 101.928725,28.7168263 101.928725,25.2954856 C101.928725,22.0237118 102.578697,19.247378 103.878641,16.9664843 C105.178586,14.6855905 106.880671,12.9515504 108.984897,11.7643639 C111.089124,10.5771774 113.34766,9.98358413 115.760506,9.98358413 C117.978608,9.98358413 120.0186,10.5135371 121.88048,11.573443 L122.227495,11.7783858 L122.708058,12.0865752 C123.364275,12.5271935 123.973701,13.0202181 124.536334,13.565649 L124.868299,13.8991963 L124.934933,13.9728112 L124.934933,0 L133.660458,0 Z M155.235793,10.0116279 C158.452921,10.0116279 161.286613,10.6613087 163.736867,11.9606703 C166.187122,13.2600319 168.09963,15.0735294 169.474391,17.4011628 C170.849152,19.7287962 171.536533,22.4069767 171.536533,25.4357045 C171.536533,28.4831281 170.849152,31.1706566 169.474391,33.49829 C168.09963,35.8259234 166.187122,37.6534428 163.736867,38.9808482 C161.286613,40.3082535 158.452921,40.9719562 155.235793,40.9719562 C152.018664,40.9719562 149.184973,40.3082535 146.734718,38.9808482 C144.284464,37.6534428 142.371956,35.8259234 140.997194,33.49829 C139.622433,31.1706566 138.935053,28.4831281 138.935053,25.4357045 C138.935053,22.4069767 139.622433,19.7287962 140.997194,17.4011628 C142.371956,15.0735294 144.284464,13.2600319 146.734718,11.9606703 C149.184973,10.6613087 152.018664,10.0116279 155.235793,10.0116279 Z M191.877388,10.0116279 C195.094516,10.0116279 197.928208,10.6613087 200.378462,11.9606703 C202.828717,13.2600319 204.741225,15.0735294 206.115986,17.4011628 C207.490747,19.7287962 208.178128,22.4069767 208.178128,25.4357045 C208.178128,28.4831281 207.490747,31.1706566 206.115986,33.49829 C204.741225,35.8259234 202.828717,37.6534428 200.378462,38.9808482 C197.928208,40.3082535 195.094516,40.9719562 191.877388,40.9719562 C188.660259,40.9719562 185.826568,40.3082535 183.376313,38.9808482 C180.926059,37.6534428 179.013551,35.8259234 177.638789,33.49829 C176.264028,31.1706566 175.576648,28.4831281 175.576648,25.4357045 C175.576648,22.4069767 176.264028,19.7287962 177.638789,17.4011628 C179.013551,15.0735294 180.926059,13.2600319 183.376313,11.9606703 C185.826568,10.6613087 188.660259,10.0116279 191.877388,10.0116279 Z M230.903773,9.98358413 C232.100844,9.98358413 233.040731,10.0723894 233.723436,10.25 C234.406141,10.4276106 234.831662,10.5631555 235,10.6566347 L235,10.6566347 L233.569126,18.4528044 L233.505393,18.4195673 C233.315118,18.3253956 232.962278,18.1869078 232.446872,18.004104 C231.867041,17.7984496 231.118871,17.6956224 230.202364,17.6956224 C228.706025,17.6956224 227.452841,17.9480164 226.442813,18.4528044 C225.432784,18.9575923 224.623826,19.625969 224.015938,20.4579343 C223.408051,21.2898997 222.973177,22.2106703 222.711318,23.2202462 C222.449459,24.2298222 222.318529,25.248746 222.318529,26.2770178 L222.318529,26.2770178 L222.318529,40.3269494 L213.593004,40.3269494 L213.593004,10.5444596 L222.318529,10.5444596 L222.318529,14.5687415 L222.430182,14.3873154 C222.818009,13.7898113 223.257749,13.2426715 223.749403,12.745896 C224.609798,11.876539 225.633855,11.1988144 226.821574,10.7127223 C228.009292,10.2266302 229.370025,9.98358413 230.903773,9.98358413 Z M155.235793,16.9103967 C153.739454,16.9103967 152.425482,17.2562699 151.293875,17.9480164 C150.162269,18.6397629 149.287846,19.625969 148.670606,20.9066347 C148.053367,22.1873005 147.744747,23.6969904 147.744747,25.4357045 C147.744747,27.1744186 148.053367,28.6934565 148.670606,29.9928181 C149.287846,31.2921797 150.162269,32.2970816 151.293875,33.0075239 C152.425482,33.7179663 153.739454,34.0731874 155.235793,34.0731874 C156.750836,34.0731874 158.069484,33.7179663 159.191738,33.0075239 C160.313992,32.2970816 161.183739,31.2921797 161.800979,29.9928181 C162.418219,28.6934565 162.726839,27.1744186 162.726839,25.4357045 C162.726839,23.6969904 162.418219,22.1873005 161.800979,20.9066347 C161.183739,19.625969 160.313992,18.6397629 159.191738,17.9480164 C158.069484,17.2562699 156.750836,16.9103967 155.235793,16.9103967 Z M191.877388,16.9103967 C190.381049,16.9103967 189.067077,17.2562699 187.93547,17.9480164 C186.803864,18.6397629 185.929441,19.625969 185.312202,20.9066347 C184.694962,22.1873005 184.386342,23.6969904 184.386342,25.4357045 C184.386342,27.1744186 184.694962,28.6934565 185.312202,29.9928181 C185.929441,31.2921797 186.803864,32.2970816 187.93547,33.0075239 C189.067077,33.7179663 190.381049,34.0731874 191.877388,34.0731874 C193.392431,34.0731874 194.711079,33.7179663 195.833333,33.0075239 C196.955587,32.2970816 197.825334,31.2921797 198.442574,29.9928181 C199.059814,28.6934565 199.368434,27.1744186 199.368434,25.4357045 C199.368434,23.6969904 199.059814,22.1873005 198.442574,20.9066347 C197.825334,19.625969 196.955587,18.6397629 195.833333,17.9480164 C194.711079,17.2562699 193.392431,16.9103967 191.877388,16.9103967 Z M117.976958,17.246922 C116.050422,17.246922 114.385745,17.8872549 112.982927,19.1679207 C111.58011,20.4485864 110.878701,22.4911081 110.878701,25.2954856 C110.878701,28.0998632 111.584786,30.1610807 112.996956,31.4791382 C114.409125,32.7971956 116.069126,33.4562244 117.976958,33.4562244 C119.174029,33.4562244 120.305635,33.1711126 121.371777,32.6008892 C122.437918,32.0306658 123.298313,31.2220702 123.952961,30.1751026 C124.557251,29.2086709 124.882639,28.0829374 124.929123,26.7979019 L124.934933,26.4733242 L124.934933,24.0335157 L124.928957,23.7134184 C124.881145,22.4469682 124.546461,21.3477849 123.924904,20.4158687 C123.251552,19.4062927 122.381805,18.625741 121.315664,18.0742134 C120.249522,17.5226858 119.136621,17.246922 117.976958,17.246922 Z" id="door" fill="#00B364"></path>
                <path d="M25.4751671,40.3269494 L25.4751671,33.5123119 L9.77237793,33.5123119 L25.1384909,16.994528 L25.1384909,10.5444596 L0.56112703,10.5444596 L0.56112703,17.3310534 L15.4783384,17.3310534 L-7.10542736e-15,33.876881 L-7.10542736e-15,40.3269494 L25.4751671,40.3269494 Z M45.5354585,41 C47.9670089,41 50.132024,40.7195622 52.0305038,40.1586867 C53.9289836,39.5978112 55.5422238,38.8359553 56.8702245,37.873119 C58.1982251,36.9102827 59.2363101,35.8259234 59.9844795,34.620041 C60.7326488,33.4141587 61.1628462,32.1849065 61.2750716,30.9322845 L61.2750716,30.9322845 L52.6898281,30.9322845 C52.6337154,31.3248974 52.4653773,31.7268582 52.1848138,32.1381669 C51.9042502,32.5494756 51.4974331,32.9233926 50.9643625,33.2599179 C50.4312918,33.5964432 49.7439112,33.872207 48.9022206,34.0872093 C48.0605301,34.3022116 47.0598535,34.4097127 45.900191,34.4097127 C44.1045845,34.4097127 42.6035697,34.0451436 41.3971466,33.3160055 C40.1907235,32.5868673 39.2835681,31.5445736 38.6756805,30.1891245 C38.4055082,29.5867026 38.1953743,28.9298089 38.0452785,28.2184434 L38.0110957,28.0437756 L61.5836915,28.0437756 C61.6136183,27.8792522 61.6375597,27.6429366 61.6555158,27.334829 L61.6678606,27.0902873 C61.6865648,26.6602827 61.6959169,26.2115823 61.6959169,25.744186 C61.6959169,22.6032832 61.0412687,19.8503192 59.7319723,17.4852941 C58.4226759,15.120269 56.5616046,13.2787278 54.1487584,11.9606703 C51.7359121,10.6426129 48.8741643,9.98358413 45.5635148,9.98358413 C42.3276823,9.98358413 39.4799626,10.6332649 37.0203558,11.9326265 C34.560749,13.2319881 32.6435649,15.0454856 31.2688037,17.373119 C29.8940425,19.7007524 29.2066619,22.4069767 29.2066619,25.4917921 C29.2066619,28.5392157 29.8800143,31.2267442 31.2267192,33.5543776 C32.5734241,35.8820109 34.4719039,37.7048564 36.9221585,39.0229138 C39.3724132,40.3409713 42.2435132,41 45.5354585,41 Z M52.7967929,22.2948016 L38.0952647,22.2948016 L38.181577,21.9551604 C38.2744054,21.6241746 38.3827052,21.3065759 38.5064765,21.0023644 L38.7037369,20.5560876 C39.3303287,19.247378 40.2374841,18.2424761 41.425203,17.5413817 C42.6129218,16.8402873 44.0297676,16.4897401 45.6757402,16.4897401 C47.3217128,16.4897401 48.6730938,16.8028956 49.729883,17.4292066 C50.7866722,18.0555176 51.567574,18.8594391 52.0725883,19.8409713 C52.4333129,20.5420657 52.6652072,21.2646221 52.7682713,22.0086407 L52.7967929,22.2948016 Z M75.8082617,40.3269494 L75.8082617,24.7346101 C75.8082617,23.2950296 76.070121,22.0237118 76.5938395,20.9206566 C77.1175581,19.8176015 77.8704035,18.9575923 78.8523758,18.3406293 C79.8343481,17.7236662 80.9986867,17.4151847 82.3453916,17.4151847 C83.897843,17.4151847 85.0855619,17.7236662 85.9085482,18.3406293 C86.7315345,18.9575923 87.3020137,19.7755358 87.6199857,20.7944596 C87.9379577,21.8133835 88.0969436,22.9398085 88.0969436,24.1737346 L88.0969436,24.1737346 L88.0969436,40.3269494 L96.7663563,40.3269494 L96.7663563,21.6778386 C96.7663563,19.3408573 96.3782434,17.2983356 95.6020177,15.5502736 C94.8257919,13.8022116 93.6474252,12.4374145 92.0669174,11.4558824 C90.4864096,10.4743502 88.4710283,9.98358413 86.0207736,9.98358413 C83.6827443,9.98358413 81.5551377,10.5351117 79.6379537,11.6381669 C78.2000657,12.4654583 76.9857517,13.529369 75.9950118,14.8298991 L75.8082617,15.0857986 L75.8082617,10.5444596 L67.1107927,10.5444596 L67.1107927,40.3269494 L75.8082617,40.3269494 Z" id="zen" fill="#222222" fill-rule="nonzero"></path>
            </g>
        </g>
    </g>
</svg>