<?xml version="1.0" encoding="UTF-8"?>
<svg width="512px" height="512px" viewBox="0 0 512 512" version="1.1" xmlns="http://www.w3.org/2000/svg" xmlns:xlink="http://www.w3.org/1999/xlink">
    <title>icon_full</title>
    <g id="icon_full" stroke="none" stroke-width="1" fill="none" fill-rule="evenodd">
        <g id="Zendoor_Icon" transform="translate(0.000000, 0.000000)">
            <g id="Symbol" transform="translate(0.000000, 0.000000)">
                <rect id="Rectangle" x="0" y="7.95807864e-13" width="512" height="512"></rect>
                <path d="M221.225142,3.76285583 C229.934659,-1.25428528 240.579439,-1.25428528 249.288956,3.76285583 L249.288956,3.76285583 L402.723065,92.1472786 C404.014057,92.8205273 405.254132,93.5909955 406.432417,94.4489037 C409.639855,96.7396095 412.208128,99.550907 414.138051,102.67563 C418.32742,109.303896 419.967786,117.69595 417.415249,126.374419 C416.340326,130.228701 414.484758,133.889544 411.84603,137.075725 L318.923,291.964 L451.472367,368.319818 C470.648843,379.366479 470.840607,407.396971 452.047661,418.783309 L451.472367,419.12322 L296.774858,508.237144 C288.065341,513.254285 277.420561,513.254285 268.711044,508.237144 L268.711044,508.237144 L115.276935,419.852721 C113.985943,419.179473 112.745868,418.409005 111.567583,417.551096 C108.360145,415.260391 105.791872,412.449093 103.861949,409.32437 C99.6725803,402.696104 98.0322137,394.30405 100.584751,385.625581 C101.659674,381.771299 103.515242,378.110456 106.15397,374.924275 L199.076,220.035 L66.527633,143.680182 C47.3511575,132.633521 47.1593927,104.603029 65.9523387,93.2166911 L66.527633,92.8767799 Z M282.742951,338.090127 L186.164106,393.721519 L282.742951,449.34481 L379.313863,393.721519 L282.742951,338.090127 Z M235.257049,62.6470886 L138.678204,118.278481 L235.249116,173.901772 L331.827961,118.278481 L235.257049,62.6470886 Z" id="Combined-Shape" fill="#00B364" fill-rule="nonzero"></path>
            </g>
        </g>
    </g>
</svg>