<?xml version="1.0" encoding="UTF-8"?>
<svg width="256px" height="256px" viewBox="0 0 256 256" version="1.1" xmlns="http://www.w3.org/2000/svg" xmlns:xlink="http://www.w3.org/1999/xlink">
    <title>Logo</title>
    <g id="Logo" stroke="none" stroke-width="1" fill="none" fill-rule="evenodd">
        <g fill="#00B364" fill-rule="nonzero" id="Group">
            <g id="Logo">
                <path d="M97.1672312,1.88142791 C102.168141,-0.627142638 108.280258,-0.627142638 113.281167,1.88142791 L113.281167,1.88142791 L201.368005,46.0675811 C202.114004,46.4056044 202.830461,46.7928425 203.511019,47.2243186 C205.343555,48.3638872 206.812971,49.7614912 207.919368,51.3148094 C210.339361,54.6362055 211.288353,58.8466281 209.812973,63.2004466 C209.540756,64.0457921 209.18313,64.8723889 208.738939,65.6684582 L169.871,145.139 L247.658392,184.159909 C258.669315,189.68324 258.779424,203.698485 247.988719,209.391654 L247.658392,209.56161 L158.832769,254.118572 C153.831859,256.627143 147.719742,256.627143 142.718833,254.118572 L142.718833,254.118572 L54.6319954,209.932419 C53.8859955,209.594396 53.1695392,209.207157 52.4889809,208.775681 C50.6564453,207.636113 49.1870289,206.238509 48.0806316,204.685191 C45.6606388,201.363795 44.7116471,197.153372 46.1870272,192.799553 C46.4592445,191.954208 46.8168702,191.127611 47.2610607,190.331542 L86.128,110.86 L8.34160844,71.8400911 C-2.6693147,66.3167604 -2.77942393,52.3015145 8.01128074,46.6083456 L8.34160844,46.4383899 Z M150.775801,169.045063 L95.3212811,196.860759 L150.775801,224.672405 L206.225765,196.860759 L150.775801,169.045063 Z M105.224199,31.3235443 L49.7696797,59.1392405 L105.219644,86.9508861 L160.674164,59.1392405 L105.224199,31.3235443 Z" id="Combined-Shape"></path>
            </g>
        </g>
    </g>
</svg>