<?xml version="1.0" encoding="UTF-8"?>
<svg width="314px" height="64px" viewBox="0 0 314 64" version="1.1" xmlns="http://www.w3.org/2000/svg" xmlns:xlink="http://www.w3.org/1999/xlink">
    <title>Group</title>
    <g id="Logo" stroke="none" stroke-width="1" fill="none" fill-rule="evenodd">
        <g id="Artboard" transform="translate(-30.000000, -24.000000)">
            <g id="Group" transform="translate(30.000000, 24.000000)">
                <g id="Symbol" transform="translate(0.000000, -0.000000)">
                    <rect id="Rectangle" x="0" y="0" width="64" height="64"></rect>
                    <path d="M25.2553318,0.470356978 C26.3492808,-0.156785659 27.6863064,-0.156785659 28.7802554,0.470356978 L28.7802554,0.470356978 L48.0576018,11.5212334 C48.2198136,11.6057656 48.375599,11.7024668 48.5235871,11.81011 C48.9219564,12.0943636 49.2412605,12.4420071 49.482026,12.8281635 C50.0056384,13.6490203 50.2147165,14.6876388 49.9072818,15.7633811 C49.8470841,15.9835562 49.7673581,16.1986892 49.6672132,16.4056543 L41.159,36.284 L58.1752732,46.0399772 C60.5489016,47.4007387 60.6067949,50.8232099 58.3489533,52.2845426 L58.1752732,52.3904025 L38.7446682,63.529643 C37.6507192,64.1567857 36.3136936,64.1567857 35.2197446,63.529643 L35.2197446,63.529643 L15.9423982,52.4787666 C15.7801864,52.3942344 15.624401,52.2975332 15.4764129,52.18989 C15.0780436,51.9056364 14.7587395,51.5579929 14.517974,51.1718365 C13.9987404,50.3578413 13.7888004,49.3297073 14.0851178,48.2635838 L14.0957584,48.2284753 C14.1548376,48.0112675 14.233847,47.7988203 14.3327868,47.5943457 L22.84,27.715 L5.82472685,17.9600228 C3.45109843,16.5992613 3.39320505,13.1767901 5.65104672,11.7154574 L5.82472685,11.6095975 Z M36.9822064,42.2612658 L24.8515302,49.2151899 L36.9822064,56.1681013 L49.1118861,49.2151899 L36.9822064,42.2612658 Z M27.0177936,7.83088608 L14.8871174,14.7848101 L27.0167972,21.7377215 L39.1474733,14.7848101 L27.0177936,7.83088608 Z" id="Combined-Shape" fill="#00B364" fill-rule="nonzero"></path>
                </g>
                <path d="M105.475167,48.3269494 L105.475167,41.5123119 L89.7723779,41.5123119 L105.138491,24.994528 L105.138491,18.5444596 L80.561127,18.5444596 L80.561127,25.3310534 L95.4783384,25.3310534 L80,41.876881 L80,48.3269494 L105.475167,48.3269494 Z M125.535458,49 C127.967009,49 130.132024,48.7195622 132.030504,48.1586867 C133.928984,47.5978112 135.542224,46.8359553 136.870224,45.873119 C138.198225,44.9102827 139.23631,43.8259234 139.984479,42.620041 C140.732649,41.4141587 141.162846,40.1849065 141.275072,38.9322845 L132.689828,38.9322845 C132.633715,39.3248974 132.465377,39.7268582 132.184814,40.1381669 C131.90425,40.5494756 131.497433,40.9233926 130.964362,41.2599179 C130.431292,41.5964432 129.743911,41.872207 128.902221,42.0872093 C128.06053,42.3022116 127.059854,42.4097127 125.900191,42.4097127 C124.104585,42.4097127 122.60357,42.0451436 121.397147,41.3160055 C120.190723,40.5868673 119.283568,39.5445736 118.675681,38.1891245 C118.405508,37.5867026 118.195374,36.9298089 118.045279,36.2184434 L118.011096,36.0437756 L141.583691,36.0437756 C141.613618,35.8792522 141.63756,35.6429366 141.655516,35.334829 L141.667861,35.0902873 C141.686565,34.6602827 141.695917,34.2115823 141.695917,33.744186 C141.695917,30.6032832 141.041269,27.8503192 139.731972,25.4852941 C138.422676,23.120269 136.561605,21.2787278 134.148758,19.9606703 C131.735912,18.6426129 128.874164,17.9835841 125.563515,17.9835841 C122.327682,17.9835841 119.479963,18.6332649 117.020356,19.9326265 C114.560749,21.2319881 112.643565,23.0454856 111.268804,25.373119 C109.894043,27.7007524 109.206662,30.4069767 109.206662,33.4917921 C109.206662,36.5392157 109.880014,39.2267442 111.226719,41.5543776 C112.573424,43.8820109 114.471904,45.7048564 116.922159,47.0229138 C119.372413,48.3409713 122.243513,49 125.535458,49 Z M132.796793,30.2948016 L118.095265,30.2948016 L118.181577,29.9551604 C118.274405,29.6241746 118.382705,29.3065759 118.506476,29.0023644 L118.703737,28.5560876 C119.330329,27.247378 120.237484,26.2424761 121.425203,25.5413817 C122.612922,24.8402873 124.029768,24.4897401 125.67574,24.4897401 C127.321713,24.4897401 128.673094,24.8028956 129.729883,25.4292066 C130.786672,26.0555176 131.567574,26.8594391 132.072588,27.8409713 C132.433313,28.5420657 132.665207,29.2646221 132.768271,30.0086407 L132.796793,30.2948016 Z M155.808262,48.3269494 L155.808262,32.7346101 C155.808262,31.2950296 156.070121,30.0237118 156.59384,28.9206566 C157.117558,27.8176015 157.870404,26.9575923 158.852376,26.3406293 C159.834348,25.7236662 160.998687,25.4151847 162.345392,25.4151847 C163.897843,25.4151847 165.085562,25.7236662 165.908548,26.3406293 C166.731535,26.9575923 167.302014,27.7755358 167.619986,28.7944596 C167.937958,29.8133835 168.096944,30.9398085 168.096944,32.1737346 L168.096944,48.3269494 L176.766356,48.3269494 L176.766356,29.6778386 C176.766356,27.3408573 176.378243,25.2983356 175.602018,23.5502736 C174.825792,21.8022116 173.647425,20.4374145 172.066917,19.4558824 C170.48641,18.4743502 168.471028,17.9835841 166.020774,17.9835841 C163.682744,17.9835841 161.555138,18.5351117 159.637954,19.6381669 C158.200066,20.4654583 156.985752,21.529369 155.995012,22.8298991 L155.808262,23.0857986 L155.808262,18.5444596 L147.110793,18.5444596 L147.110793,48.3269494 L155.808262,48.3269494 Z" id="zen" fill="#222222" fill-rule="nonzero"></path>
                <path d="M194.760506,49 C197.173352,49 199.357072,48.3596671 201.311664,47.0790014 C202.126078,46.5453906 202.870675,45.9355034 203.545456,45.2493398 L203.934933,44.8354993 L203.934933,48.3269494 L212.660458,48.3269494 L212.660458,8 L203.934933,8 L203.934933,21.9728112 L203.868299,21.8991963 C203.215599,21.2195242 202.495519,20.6153172 201.708058,20.0865752 L201.227495,19.7783858 C199.272903,18.5818513 197.11724,17.9835841 194.760506,17.9835841 C192.34766,17.9835841 190.089124,18.5771774 187.984897,19.7643639 C185.880671,20.9515504 184.178586,22.6855905 182.878641,24.9664843 C181.578697,27.247378 180.928725,30.0237118 180.928725,33.2954856 C180.928725,36.7168263 181.564669,39.5959872 182.836557,41.9329685 C184.108445,44.2699498 185.791826,46.0320337 187.8867,47.2192202 C189.981574,48.4064067 192.272843,49 194.760506,49 Z M196.976958,41.4562244 C195.069126,41.4562244 193.409125,40.7971956 191.996956,39.4791382 C190.584786,38.1610807 189.878701,36.0998632 189.878701,33.2954856 C189.878701,30.4911081 190.58011,28.4485864 191.982927,27.1679207 C193.385745,25.8872549 195.050422,25.246922 196.976958,25.246922 C198.136621,25.246922 199.249522,25.5226858 200.315664,26.0742134 C201.381805,26.625741 202.251552,27.4062927 202.924904,28.4158687 C203.598257,29.4254446 203.934933,30.6313269 203.934933,32.0335157 L203.934933,32.0335157 L203.934933,32.3980848 L203.934933,34.4733242 C203.934933,35.8942088 203.607609,37.128135 202.952961,38.1751026 C202.298313,39.2220702 201.437918,40.0306658 200.371777,40.6008892 C199.305635,41.1711126 198.174029,41.4562244 196.976958,41.4562244 Z M234.235793,48.9719562 C237.452921,48.9719562 240.286613,48.3082535 242.736867,46.9808482 C245.187122,45.6534428 247.09963,43.8259234 248.474391,41.49829 C249.849152,39.1706566 250.536533,36.4831281 250.536533,33.4357045 C250.536533,30.4069767 249.849152,27.7287962 248.474391,25.4011628 C247.09963,23.0735294 245.187122,21.2600319 242.736867,19.9606703 C240.286613,18.6613087 237.452921,18.0116279 234.235793,18.0116279 C231.018664,18.0116279 228.184973,18.6613087 225.734718,19.9606703 C223.284464,21.2600319 221.371956,23.0735294 219.997194,25.4011628 C218.622433,27.7287962 217.935053,30.4069767 217.935053,33.4357045 C217.935053,36.4831281 218.622433,39.1706566 219.997194,41.49829 C221.371956,43.8259234 223.284464,45.6534428 225.734718,46.9808482 C228.184973,48.3082535 231.018664,48.9719562 234.235793,48.9719562 Z M234.235793,42.0731874 C232.739454,42.0731874 231.425482,41.7179663 230.293875,41.0075239 C229.162269,40.2970816 228.287846,39.2921797 227.670606,37.9928181 C227.053367,36.6934565 226.744747,35.1744186 226.744747,33.4357045 C226.744747,31.6969904 227.053367,30.1873005 227.670606,28.9066347 C228.287846,27.625969 229.162269,26.6397629 230.293875,25.9480164 C231.425482,25.2562699 232.739454,24.9103967 234.235793,24.9103967 C235.750836,24.9103967 237.069484,25.2562699 238.191738,25.9480164 C239.313992,26.6397629 240.183739,27.625969 240.800979,28.9066347 C241.418219,30.1873005 241.726839,31.6969904 241.726839,33.4357045 C241.726839,35.1744186 241.418219,36.6934565 240.800979,37.9928181 C240.183739,39.2921797 239.313992,40.2970816 238.191738,41.0075239 C237.069484,41.7179663 235.750836,42.0731874 234.235793,42.0731874 Z M270.877388,48.9719562 C274.094516,48.9719562 276.928208,48.3082535 279.378462,46.9808482 C281.828717,45.6534428 283.741225,43.8259234 285.115986,41.49829 C286.490747,39.1706566 287.178128,36.4831281 287.178128,33.4357045 C287.178128,30.4069767 286.490747,27.7287962 285.115986,25.4011628 C283.741225,23.0735294 281.828717,21.2600319 279.378462,19.9606703 C276.928208,18.6613087 274.094516,18.0116279 270.877388,18.0116279 C267.660259,18.0116279 264.826568,18.6613087 262.376313,19.9606703 C259.926059,21.2600319 258.013551,23.0735294 256.638789,25.4011628 C255.264028,27.7287962 254.576648,30.4069767 254.576648,33.4357045 C254.576648,36.4831281 255.264028,39.1706566 256.638789,41.49829 C258.013551,43.8259234 259.926059,45.6534428 262.376313,46.9808482 C264.826568,48.3082535 267.660259,48.9719562 270.877388,48.9719562 Z M270.877388,42.0731874 C269.381049,42.0731874 268.067077,41.7179663 266.93547,41.0075239 C265.803864,40.2970816 264.929441,39.2921797 264.312202,37.9928181 C263.694962,36.6934565 263.386342,35.1744186 263.386342,33.4357045 C263.386342,31.6969904 263.694962,30.1873005 264.312202,28.9066347 C264.929441,27.625969 265.803864,26.6397629 266.93547,25.9480164 C268.067077,25.2562699 269.381049,24.9103967 270.877388,24.9103967 C272.392431,24.9103967 273.711079,25.2562699 274.833333,25.9480164 C275.955587,26.6397629 276.825334,27.625969 277.442574,28.9066347 C278.059814,30.1873005 278.368434,31.6969904 278.368434,33.4357045 C278.368434,35.1744186 278.059814,36.6934565 277.442574,37.9928181 C276.825334,39.2921797 275.955587,40.2970816 274.833333,41.0075239 C273.711079,41.7179663 272.392431,42.0731874 270.877388,42.0731874 Z M301.318529,48.3269494 L301.318529,34.2770178 C301.318529,33.248746 301.449459,32.2298222 301.711318,31.2202462 C301.973177,30.2106703 302.408051,29.2898997 303.015938,28.4579343 C303.623826,27.625969 304.432784,26.9575923 305.442813,26.4528044 C306.452841,25.9480164 307.706025,25.6956224 309.202364,25.6956224 C310.118871,25.6956224 310.867041,25.7984496 311.446872,26.004104 C312.026703,26.2097583 312.400788,26.3593251 312.569126,26.4528044 L312.569126,26.4528044 L314,18.6566347 C313.831662,18.5631555 313.406141,18.4276106 312.723436,18.25 C312.040731,18.0723894 311.100844,17.9835841 309.903773,17.9835841 C308.370025,17.9835841 307.009292,18.2266302 305.821574,18.7127223 C304.633855,19.1988144 303.609798,19.876539 302.749403,20.745896 C302.257749,21.2426715 301.818009,21.7898113 301.430182,22.3873154 L301.318529,22.5687415 L301.318529,18.5444596 L292.593004,18.5444596 L292.593004,48.3269494 L301.318529,48.3269494 Z" id="dooor" fill="#00B364" fill-rule="nonzero"></path>
            </g>
        </g>
    </g>
</svg>